<svg width="467px" height="334px" viewBox="0 0 467 334" xmlns="http://www.w3.org/2000/svg" xmlns:xlink="http://www.w3.org/1999/xlink" style="width: 467px; height: 334px;"><g transform="matrix(1, 0, 0, 1, 0, 0)" clip-path="url(#mainClip1115)"><rect x="0" y="0" width="467" height="334" fill="white" stroke="none" transform="matrix(1, 0, 0, 1, 0, 0)"/><g transform="matrix(1, 0, 0, 1, 0.9999999999999982, 1)"><g transform="matrix(1, 0, 0, 1, 1.7763568394002505e-15, 11.954305003384114)"><path d="M 5,0 L 246.5685424949238,0 C 248.80711874576983,0 251.5685424949238,2.761423749153968 251.5685424949238,5 L 251.5685424949238,313.1142374915397 C 251.5685424949238,315.35281374238576 248.80711874576983,318.1142374915397 246.5685424949238,318.1142374915397 L 5,318.1142374915397 C 2.761423749153968,318.1142374915397 0,315.35281374238576 0,313.1142374915397 L 0,5 C 0,2.761423749153968 2.761423749153968,0 5,0 z" fill="#FFFFFF" stroke="none" transform="matrix(1, 0, 0, 1, 0.5, 0.5)"/><path d="M 5,0 L 246.5685424949238,0 C 248.80711874576983,0 251.5685424949238,2.761423749153968 251.5685424949238,5 L 251.5685424949238,313.1142374915397 C 251.5685424949238,315.35281374238576 248.80711874576983,318.1142374915397 246.5685424949238,318.1142374915397 L 5,318.1142374915397 C 2.761423749153968,318.1142374915397 0,315.35281374238576 0,313.1142374915397 L 0,5 C 0,2.761423749153968 2.761423749153968,0 5,0 z" fill="none" stroke="#CDD3DF" stroke-width="1" stroke-linecap="butt" stroke-linejoin="miter" stroke-miterlimit="10" transform="matrix(1, 0, 0, 1, 0.5, 0.5)"/><g transform="matrix(1, 0, 0, 1, 3.7614237491539537, 3.7614237491539964)"><text x="0" y="14.625" style="font: bold 16px -apple-system, BlinkMacSystemFont, &quot;Segoe UI&quot;, &quot;Roboto&quot;, &quot;Oxygen&quot;, &quot;Ubuntu&quot;, &quot;Cantarell&quot;, &quot;Fira Sans&quot;, &quot;Droid Sans&quot;, &quot;Helvetica Neue&quot;, sans-serif" text-anchor="start" fill="#021443" stroke="none" transform="matrix(1, 0, 0, 1, 12, 12)">src/</text></g></g><g transform="matrix(1, 0, 0, 1, 25.761423749153955, 191.26142374915398)"><path d="M 5,0 L 195.04569499661588,0 C 197.2842712474619,0 200.04569499661588,2.761423749153968 200.04569499661588,5 L 200.04569499661588,108.0456949966159 C 200.04569499661588,110.28427124746193 197.2842712474619,113.0456949966159 195.04569499661588,113.0456949966159 L 5,113.0456949966159 C 2.761423749153968,113.0456949966159 0,110.28427124746193 0,108.0456949966159 L 0,5 C 0,2.761423749153968 2.761423749153968,0 5,0 z" fill="#FFFFFF" stroke="none" transform="matrix(1, 0, 0, 1, 0.5, 0.5)"/><path d="M 5,0 L 195.04569499661588,0 C 197.2842712474619,0 200.04569499661588,2.761423749153968 200.04569499661588,5 L 200.04569499661588,108.0456949966159 C 200.04569499661588,110.28427124746193 197.2842712474619,113.0456949966159 195.04569499661588,113.0456949966159 L 5,113.0456949966159 C 2.761423749153968,113.0456949966159 0,110.28427124746193 0,108.0456949966159 L 0,5 C 0,2.761423749153968 2.761423749153968,0 5,0 z" fill="none" stroke="#CDD3DF" stroke-width="1" stroke-linecap="butt" stroke-linejoin="miter" stroke-miterlimit="10" transform="matrix(1, 0, 0, 1, 0.5, 0.5)"/><g transform="matrix(1, 0, 0, 1, 3.7614237491539537, 3.761423749153975)"><text x="0" y="14.625" style="font: bold 16px -apple-system, BlinkMacSystemFont, &quot;Segoe UI&quot;, &quot;Roboto&quot;, &quot;Oxygen&quot;, &quot;Ubuntu&quot;, &quot;Cantarell&quot;, &quot;Fira Sans&quot;, &quot;Droid Sans&quot;, &quot;Helvetica Neue&quot;, sans-serif" text-anchor="start" fill="#021443" stroke="none" transform="matrix(1, 0, 0, 1, 12, 12)">templates/</text></g></g><g transform="matrix(1, 0, 0, 1, 25.761423749153955, 57.21572875253811)"><path d="M 5,0 L 179.04569499661588,0 C 181.2842712474619,0 184.04569499661588,2.761423749153968 184.04569499661588,5 L 184.04569499661588,108.04569499661588 C 184.04569499661588,110.28427124746192 181.2842712474619,113.04569499661588 179.04569499661588,113.04569499661588 L 5,113.04569499661588 C 2.761423749153968,113.04569499661588 0,110.28427124746192 0,108.04569499661588 L 0,5 C 0,2.761423749153968 2.761423749153968,0 5,0 z" fill="#FFFFFF" stroke="none" transform="matrix(1, 0, 0, 1, 0.5, 0.5)"/><path d="M 5,0 L 179.04569499661588,0 C 181.2842712474619,0 184.04569499661588,2.761423749153968 184.04569499661588,5 L 184.04569499661588,108.04569499661588 C 184.04569499661588,110.28427124746192 181.2842712474619,113.04569499661588 179.04569499661588,113.04569499661588 L 5,113.04569499661588 C 2.761423749153968,113.04569499661588 0,110.28427124746192 0,108.04569499661588 L 0,5 C 0,2.761423749153968 2.761423749153968,0 5,0 z" fill="none" stroke="#CDD3DF" stroke-width="1" stroke-linecap="butt" stroke-linejoin="miter" stroke-miterlimit="10" transform="matrix(1, 0, 0, 1, 0.5, 0.5)"/><g transform="matrix(1, 0, 0, 1, 3.7614237491539537, 3.761423749153975)"><text x="0" y="14.625" style="font: bold 16px -apple-system, BlinkMacSystemFont, &quot;Segoe UI&quot;, &quot;Roboto&quot;, &quot;Oxygen&quot;, &quot;Ubuntu&quot;, &quot;Cantarell&quot;, &quot;Fira Sans&quot;, &quot;Droid Sans&quot;, &quot;Helvetica Neue&quot;, sans-serif" text-anchor="start" fill="#021443" stroke="none" transform="matrix(1, 0, 0, 1, 12, 12)">utils/</text></g></g><g transform="matrix(1, 0, 0, 1, 138.376012760149, 12.034285854037982)"><path d="M 0,84.93696259316108 C 66.0704634007848,18.462589441590616 117.9312505253117,-1.779775572569804 158.19350532715234,0" fill="none" stroke="#CDD3DF" stroke-width="2" stroke-linecap="butt" stroke-linejoin="miter" stroke-miterlimit="10" transform="matrix(1, 0, 0, 1, 1, 5.796645768682205)"/><path d="M 0,0 L 6,4.62 L 0,9.24 z" fill="#CDD3DF" stroke="none" transform="matrix(0.999024407622465, 0.04416144217055117, -0.04416144217055117, 0.999024407622465, 152.40436033662303, 0.8720229102725581)"/><path d="M 0,0 L 6,4.62 L 0,9.24 z" fill="none" stroke="#CDD3DF" stroke-width="2" stroke-linecap="butt" stroke-linejoin="miter" stroke-miterlimit="10" transform="matrix(0.999024407622465, 0.04416144217055117, -0.04416144217055117, 0.999024407622465, 152.40436033662303, 0.8720229102725581)"/></g><g transform="matrix(1, 0, 0, 1, 51.52284749830791, 236.52284749830795)"><path d="M 5,0 L 142.52284749830793,0 C 144.76142374915395,0 147.52284749830793,2.761423749153968 147.52284749830793,5 L 147.52284749830793,36.02284749830794 C 147.52284749830793,38.26142374915397 144.76142374915395,41.02284749830794 142.52284749830793,41.02284749830794 L 5,41.02284749830794 C 2.761423749153968,41.02284749830794 0,38.26142374915397 0,36.02284749830794 L 0,5 C 0,2.761423749153968 2.761423749153968,0 5,0 z" fill="#FFCD82" stroke="none" transform="matrix(1, 0, 0, 1, 1, 1)"/><path d="M 5,0 L 142.52284749830793,0 C 144.76142374915395,0 147.52284749830793,2.761423749153968 147.52284749830793,5 L 147.52284749830793,36.02284749830794 C 147.52284749830793,38.26142374915397 144.76142374915395,41.02284749830794 142.52284749830793,41.02284749830794 L 5,41.02284749830794 C 2.761423749153968,41.02284749830794 0,38.26142374915397 0,36.02284749830794 L 0,5 C 0,2.761423749153968 2.761423749153968,0 5,0 z" fill="none" stroke="#FFCD82" stroke-width="2" stroke-linecap="butt" stroke-linejoin="miter" stroke-miterlimit="10" transform="matrix(1, 0, 0, 1, 1, 1)"/><g transform="matrix(1, 0, 0, 1, 11.761423749153954, 11.761423749153968)"><text x="0" y="14.625" style="font: bold 16px -apple-system, BlinkMacSystemFont, &quot;Segoe UI&quot;, &quot;Roboto&quot;, &quot;Oxygen&quot;, &quot;Ubuntu&quot;, &quot;Cantarell&quot;, &quot;Fira Sans&quot;, &quot;Droid Sans&quot;, &quot;Helvetica Neue&quot;, sans-serif" text-anchor="start" fill="black" stroke="none" transform="matrix(1, 0, 0, 1, 2, 0)">RegionPage.tsx</text></g></g><g transform="matrix(1, 0, 0, 1, 297.5685424949238, 0)"><path d="M 5,0 L 159.52284749830793,0 C 161.76142374915395,0 164.52284749830793,2.761423749153968 164.52284749830793,5 L 164.52284749830793,36.02284749830794 C 164.52284749830793,38.26142374915397 161.76142374915395,41.02284749830794 159.52284749830793,41.02284749830794 L 5,41.02284749830794 C 2.761423749153968,41.02284749830794 0,38.26142374915397 0,36.02284749830794 L 0,5 C 0,2.761423749153968 2.761423749153968,0 5,0 z" fill="#FFCD82" stroke="none" transform="matrix(1, 0, 0, 1, 1, 1)"/><path d="M 5,0 L 159.52284749830793,0 C 161.76142374915395,0 164.52284749830793,2.761423749153968 164.52284749830793,5 L 164.52284749830793,36.02284749830794 C 164.52284749830793,38.26142374915397 161.76142374915395,41.02284749830794 159.52284749830793,41.02284749830794 L 5,41.02284749830794 C 2.761423749153968,41.02284749830794 0,38.26142374915397 0,36.02284749830794 L 0,5 C 0,2.761423749153968 2.761423749153968,0 5,0 z" fill="none" stroke="#FFCD82" stroke-width="2" stroke-linecap="butt" stroke-linejoin="miter" stroke-miterlimit="10" transform="matrix(1, 0, 0, 1, 1, 1)"/><g transform="matrix(1, 0, 0, 1, 11.761423749153954, 11.761423749153968)"><text x="0" y="14.625" style="font: bold 16px -apple-system, BlinkMacSystemFont, &quot;Segoe UI&quot;, &quot;Roboto&quot;, &quot;Oxygen&quot;, &quot;Ubuntu&quot;, &quot;Cantarell&quot;, &quot;Fira Sans&quot;, &quot;Droid Sans&quot;, &quot;Helvetica Neue&quot;, sans-serif" text-anchor="start" fill="black" stroke="none" transform="matrix(1, 0, 0, 1, 2, 0)">tailwind.config.js</text></g></g><g transform="matrix(1, 0, 0, 1, 51.52284749830791, 102.47715250169209)"><path d="M 5,0 L 126.52284749830793,0 C 128.76142374915395,0 131.52284749830793,2.761423749153968 131.52284749830793,5 L 131.52284749830793,36.02284749830794 C 131.52284749830793,38.26142374915397 128.76142374915395,41.02284749830794 126.52284749830793,41.02284749830794 L 5,41.02284749830794 C 2.761423749153968,41.02284749830794 0,38.26142374915397 0,36.02284749830794 L 0,5 C 0,2.761423749153968 2.761423749153968,0 5,0 z" fill="#FFFFFF" stroke="none" transform="matrix(1, 0, 0, 1, 1, 1)"/><path d="M 5,0 L 126.52284749830793,0 C 128.76142374915395,0 131.52284749830793,2.761423749153968 131.52284749830793,5 L 131.52284749830793,36.02284749830794 C 131.52284749830793,38.26142374915397 128.76142374915395,41.02284749830794 126.52284749830793,41.02284749830794 L 5,41.02284749830794 C 2.761423749153968,41.02284749830794 0,38.26142374915397 0,36.02284749830794 L 0,5 C 0,2.761423749153968 2.761423749153968,0 5,0 z" fill="none" stroke="#021443" stroke-width="2" stroke-linecap="butt" stroke-linejoin="miter" stroke-miterlimit="10" transform="matrix(1, 0, 0, 1, 1, 1)"/><g transform="matrix(1, 0, 0, 1, 11.76142374915396, 11.761423749153968)"><text x="0" y="14.625" style="font: bold 16px -apple-system, BlinkMacSystemFont, &quot;Segoe UI&quot;, &quot;Roboto&quot;, &quot;Oxygen&quot;, &quot;Ubuntu&quot;, &quot;Cantarell&quot;, &quot;Fira Sans&quot;, &quot;Droid Sans&quot;, &quot;Helvetica Neue&quot;, sans-serif" text-anchor="start" fill="black" stroke="none" transform="matrix(1, 0, 0, 1, 2, 0)">site-theme.ts</text></g></g></g></g><clipPath id="mainClip1115"><rect x="0" y="0" width="467px" height="334px"/></clipPath></svg>